<?xml version="1.0" encoding="utf-8"?>
<!-- Generator: Adobe Illustrator 23.0.3, SVG Export Plug-In . SVG Version: 6.00 Build 0)  -->
<svg version="1.1" id="Layer_1" xmlns="http://www.w3.org/2000/svg" xmlns:xlink="http://www.w3.org/1999/xlink" x="0px" y="0px"
	 viewBox="0 0 490 490" style="enable-background:new 0 0 490 490;" xml:space="preserve">
<style type="text/css">
	.st0{fill:#010002;}
	.st1{fill:#828282;}
</style>
<g>
	<path class="st0" d="M58.7,195.9c0,58,25.9,109.8,66.7,144.8c7.8,6.7,18.4,15.7,28.1,24.7c10.5,9.7,24,28.4,31.3,40.7l27.9,46.8
		c7.3,12.3,20.5,32.4,33.4,32.3c12.9-0.1,25.5-20.6,32.3-33.2l18.7-34.7c6.8-12.6,19.7-31.6,30.6-40.9c9.9-8.5,20.9-16.6,29.3-22.3
		C407.7,319.8,441,261.8,441,196C441,90.4,355.5,4.8,249.9,4.8C144.3,4.8,58.7,90.4,58.7,195.9z M249.9,353.8
		C163.2,353.8,93,283.5,93,196.8c0-86.7,70.3-156.9,156.9-156.9s156.9,70.3,156.9,156.9C406.8,283.5,336.6,353.8,249.9,353.8z"/>
</g>
<g>
	<g>
		<path class="st1" d="M350.4,188.8l-6-24.2c1.7-0.4,2.9-1.8,2.9-3.6v-3.9c0-8.5-6.9-15.3-15.3-15.3h-27.5v-8c0-4.2-3.4-7.6-7.6-7.6
			H156.4c-4.2,0-7.6,3.4-7.6,7.6V200c0,2,1.6,3.7,3.7,3.7c2,0,3.7-1.6,3.7-3.7v-66.3c0-0.1,0.1-0.2,0.2-0.2h140.3
			c0.1,0,0.2,0.1,0.2,0.2V200c0,2,1.6,3.7,3.7,3.7c2,0,3.7-1.6,3.7-3.7v-4.1h43.1c0,0,0,0,0,0c0,0,0,0,0,0c5.3,0,9.8,3.5,11.4,8.3
			h-11.4c-2,0-3.7,1.6-3.7,3.7v7.8c0,6.3,5.1,11.5,11.5,11.5h4.1v16.1h-9.6c-3.1-9.1-11.8-15.6-21.9-15.6
			c-10.1,0-18.7,6.5-21.9,15.6h-1.8v-27.5c0-2-1.6-3.7-3.7-3.7c-2,0-3.7,1.6-3.7,3.7v27.5h-75.8c-3.1-9.1-11.8-15.6-21.9-15.6
			s-18.7,6.5-21.9,15.6h-21c-0.1,0-0.2-0.1-0.2-0.2v-8H172c2,0,3.7-1.6,3.7-3.7s-1.6-3.7-3.7-3.7H137c-2,0-3.7,1.6-3.7,3.7
			s1.6,3.7,3.7,3.7h11.9v8c0,4.2,3.4,7.6,7.6,7.6h19.7c0,0.1,0,0.2,0,0.2c0,12.8,10.4,23.1,23.1,23.1s23.1-10.4,23.1-23.1
			c0-0.1,0-0.2,0-0.2h82.4c0,0.1,0,0.2,0,0.2c0,12.8,10.4,23.1,23.1,23.1s23.1-10.4,23.1-23.1c0-0.1,0-0.2,0-0.2H363
			c2,0,3.7-1.6,3.7-3.7v-39C366.7,198.2,359.6,190.2,350.4,188.8z M304.3,149.1h27.5c4.4,0,8,3.6,8,8v0.2h-35.6V149.1z M304.3,188.5
			v-23.9h32.5l6,23.9L304.3,188.5L304.3,188.5z M199.3,266.5c-8.7,0-15.8-7.1-15.8-15.8s7.1-15.8,15.8-15.8
			c8.7,0,15.8,7.1,15.8,15.8S208.1,266.5,199.3,266.5z M328,266.5c-8.7,0-15.8-7.1-15.8-15.8s7.1-15.8,15.8-15.8s15.8,7.1,15.8,15.8
			S336.7,266.5,328,266.5z M359.4,219.7h-4.1c-2.3,0-4.1-1.9-4.1-4.1v-4.1h8.3L359.4,219.7L359.4,219.7z"/>
	</g>
</g>
<g>
	<g>
		<path class="st1" d="M199.3,243.1c-4.2,0-7.6,3.4-7.6,7.6s3.4,7.6,7.6,7.6s7.6-3.4,7.6-7.6S203.5,243.1,199.3,243.1z"/>
	</g>
</g>
<g>
	<g>
		<path class="st1" d="M328,243.1c-4.2,0-7.6,3.4-7.6,7.6s3.4,7.6,7.6,7.6s7.6-3.4,7.6-7.6S332.1,243.1,328,243.1z"/>
	</g>
</g>
<g>
	<g>
		<path class="st1" d="M285.1,227.5h-54.6c-2,0-3.7,1.6-3.7,3.7c0,2,1.6,3.7,3.7,3.7h54.6c2,0,3.7-1.6,3.7-3.7
			C288.7,229.2,287.1,227.5,285.1,227.5z"/>
	</g>
</g>
<g>
	<g>
		<path class="st1" d="M191.5,211.9h-46.8c-2,0-3.7,1.6-3.7,3.7s1.6,3.7,3.7,3.7h46.8c2,0,3.7-1.6,3.7-3.7S193.5,211.9,191.5,211.9z
			"/>
	</g>
</g>
<g>
	<g>
		<path class="st1" d="M260.4,162.3c-1.4-1.4-3.7-1.4-5.2,0l-32.5,32.5l-16.9-16.9c-1.4-1.4-3.7-1.4-5.2,0c-1.4,1.4-1.4,3.7,0,5.2
			l19.5,19.5c0.7,0.7,1.6,1.1,2.6,1.1s1.9-0.4,2.6-1.1l35.1-35.1C261.8,166.1,261.8,163.8,260.4,162.3z"/>
	</g>
</g>
</svg>
